# xmcd CD database file
#
# Track frame offsets:
#	150
#	13980
#	40213
#	58887
#	79221
#	96896
#	116850
#	142767
#	182466
#
# Disc length: 2736 seconds
#
# Revision: 0
# Processed by: cddbd v1.5.2PL0 Copyright (c) Steve Scherf et al.
# Submitted via: CDex 1.70beta3
#
DISCID=770aae09
DTITLE=Team Hegdal - Vol.2
DYEAR=2011
DGENRE=Jazz
TTITLE0=Weird Daydream
TTITLE1=Last Call
TTITLE2=The Beginning
TTITLE3=Line for TIgers
TTITLE4=Cross
TTITLE5=Average March
TTITLE6=No 1
TTITLE7=Depature
TTITLE8=Arrival
EXTD=YEAR: 2011
EXTT0=
EXTT1=
EXTT2=
EXTT3=
EXTT4=
EXTT5=
EXTT6=
EXTT7=
EXTT8=
PLAYORDER=
